<svg xmlns="http://www.w3.org/2000/svg" viewBox="0 0 200 200"><title>daily_filled</title><g id="Capa_2" data-name="Capa 2"><g id="Capa_1-2" data-name="Capa 1"><path d="M36.84.58a17.76,17.76,0,0,0-8.13,4.65c-3.86,4-5.27,8.09-5.27,15.35V25H11.72A11.72,11.72,0,0,0,0,36.71v12.9H200V36.71A11.71,11.71,0,0,0,188.28,25H176.57V20.78c0-7.43-1.45-11.64-5.28-15.51A17.44,17.44,0,0,0,143.13,10c-1.45,2.93-2.11,6.71-2.11,12.18V25H117.58V20.19c0-7.62-1.48-11.6-5.78-15.51a17.58,17.58,0,0,0-26.91,4c-1.84,3.08-2.47,6-2.47,11.56V25H59V22.14c0-1.52-.2-4.29-.39-6.13C57.35,5.07,47.11-2.15,36.84.58Zm6.91,11.84a6.33,6.33,0,0,1,2.23,2c.82,1.21.9,1.8.9,5.94V25H35.16V37.1H23.44V25H35.16V20.93a22.91,22.91,0,0,1,.43-5.19A5.9,5.9,0,0,1,43.75,12.42Zm59.14.19c2.43,1.37,3,2.85,3,8V25H94.14V37.1H82.42V25H94.14V20.58c0-3.51.16-4.65.75-5.74A6.64,6.64,0,0,1,100,11.71,6.62,6.62,0,0,1,102.89,12.61Zm59.14.16c2.31,1.72,2.62,2.54,2.74,7.58l.15,4.65H153.13V20.35c0-4.14.08-4.73.9-5.94A5.78,5.78,0,0,1,162,12.77Zm-9.29,18.28V37.1H141.41V25h11.33Z" style="fill:#0880de"/><path d="M.08,68,.2,74.64,8.13,78c4.33,1.79,8.16,3.28,8.47,3.28s5-1.84,10.43-4.11S37.11,73,37.39,73s5,1.84,10.46,4.1,10.2,4.11,10.47,4.11,5-1.84,10.43-4.11S78.87,73,79.14,73s5,1.84,10.43,4.1S99.73,81.25,100,81.25s5-1.84,10.43-4.11S120.55,73,120.86,73s5,1.84,10.43,4.1,10.16,4.11,10.47,4.11,5-1.84,10.43-4.11S162.31,73,162.58,73s5,1.84,10.47,4.1,10.16,4.11,10.51,4.11S187.7,79.76,192,78l7.81-3.29.11-6.68.08-6.68H0Z" style="fill:#0880de"/><path d="M199.77,87.5c-.12,0-3.83,1.48-8.28,3.32l-8.09,3.36L173,89.84l-10.39-4.33-10.43,4.33-10.43,4.34-10.43-4.34-10.47-4.33-10.43,4.33L100,94.18,89.57,89.84,79.18,85.51,68.75,89.84,58.32,94.18,47.93,89.84c-5.7-2.34-10.55-4.29-10.7-4.25s-4.88,2-10.47,4.33L16.6,94.18l-8-3.36C4.18,89,.43,87.5.27,87.5S0,112.81,0,143.75v44.53A11.72,11.72,0,0,0,11.72,200H188.28A11.72,11.72,0,0,0,200,188.28V143.75C200,112.81,199.92,87.5,199.77,87.5Zm-90.43,85.71-5.74-.12L97.82,173l-.12-23.56-.07-23.52H91.38V114.17h18Z" style="fill:#0880de"/></g></g></svg>