<svg xmlns="http://www.w3.org/2000/svg" viewBox="0 0 200 200"><title>monthly_outlined</title><g id="Capa_2" data-name="Capa 2"><g id="Capa_1-2" data-name="Capa 1"><path d="M36.76.6a17.76,17.76,0,0,0-8,4.65C25,9,23.44,13.33,23.44,19.78v3.63H11.72A11.72,11.72,0,0,0,0,35.13V188.28A11.72,11.72,0,0,0,11.72,200H188.28A11.72,11.72,0,0,0,200,188.28V35.13a11.72,11.72,0,0,0-11.72-11.72H176.56V20c0-6.6-1.6-11-5.27-14.72a17.44,17.44,0,0,0-28.16,4.68A26.64,26.64,0,0,0,141,21.34v2.07H117.58v-4c0-6.75-1.64-10.92-5.76-14.71a17.43,17.43,0,0,0-23.64,0c-4.12,3.79-5.76,8-5.76,14.71v4H59V21.34c0-1.09-.19-3.51-.39-5.35C57.34,5,47.11-2.18,36.76.6Zm7,11.8a6.41,6.41,0,0,1,2.23,2c.78,1.17.9,1.83.9,5.16v3.86H35.16V20.13c0-3.59.35-5,1.68-6.45A5.72,5.72,0,0,1,43.75,12.4Zm59.14.19c2.31,1.33,3,2.89,3,7.19v3.63H94.14V19.78c0-2.77.16-3.91.74-5A6.64,6.64,0,0,1,100,11.69,6.66,6.66,0,0,1,102.89,12.59Zm59.14.16c2.23,1.64,2.62,2.61,2.74,6.8l.15,3.86H153.13V19.55c0-3.33.11-4,.89-5.16A5.79,5.79,0,0,1,162,12.75ZM23.44,38.06V41H35.16V35.13H82.42V41H94.14V35.13H141V41h12.11V35.13h35.15V46.85H11.72V35.13H23.44ZM188.28,63.81v4.8l-6.21,2.62c-3.44,1.41-6.44,2.58-6.72,2.58s-4.53-1.68-9.45-3.71-9.14-3.71-9.42-3.71-4.49,1.68-9.37,3.71-9.14,3.71-9.41,3.71-4.5-1.68-9.42-3.71-9.14-3.71-9.41-3.71-4.49,1.68-9.42,3.71-9.18,3.71-9.41,3.71-4.49-1.68-9.41-3.71-9.15-3.71-9.42-3.71-4.53,1.68-9.41,3.71-9.14,3.71-9.42,3.71S57.85,72.13,53,70.1s-9.14-3.71-9.42-3.71S39,68.07,34.14,70.1s-9.1,3.71-9.41,3.71S21.41,72.64,18,71.23l-6.25-2.62V59H188.28ZM53.36,83l9,3.75,9.42-3.9,9.41-3.91,9.42,3.91L100,86.7l9.41-3.9,9.46-3.91,9.41,3.91,9.38,3.9,9.45-3.9,9.41-3.91,9.42,3.91,9.37,3.9L181.8,84l6.48-2.7v107H11.72V134.72c0-29.42.12-53.45.31-53.37s3.05,1.37,6.49,2.77l6.17,2.58L34,82.84a97.35,97.35,0,0,1,9.8-3.79C44.06,79.12,48.4,80.88,53.36,83Z" style="fill:#0880de"/><path d="M72.45,106.42A16.28,16.28,0,0,0,64.21,111,18,18,0,0,0,59,121.75l-.19,1.65H70.29l1-2c1.29-2.74,2.62-3.64,5.27-3.64s3.91.86,5.2,3.36a5.18,5.18,0,0,1-.32,5.63c-1.21,1.95-2.18,2.3-6.64,2.54l-4.1.19-.11,5.71-.12,5.7,3.94.24c4.12.21,5.73.77,6.94,2.56,2.46,3.65-.12,9-4.51,9.15-2.95.12-5.13-1.61-6.1-4.92-.19-.58-.82-.66-6-.66H58.81l.19,1.25c.82,5.12,2.42,8.36,5.47,11.25a17.57,17.57,0,0,0,29.42-10.16c.7-4.29-.79-10.12-3.36-13.24l-.79-1L91.27,133a17.59,17.59,0,0,0-2.42-22,16.08,16.08,0,0,0-8.23-4.64A17.62,17.62,0,0,0,72.45,106.42Z" style="fill:#0880de"/><path d="M141,123.41a35.65,35.65,0,0,0-.3-4.14.06.06,0,0,0,0,0,21.52,21.52,0,0,0-.9-2.63c-.11-.25-.22-.51-.33-.75-.05-.08-.08-.16-.12-.24a18,18,0,0,0-2-3.07c-.23-.29-.47-.57-.73-.85a18.45,18.45,0,0,0-12-5.75l-.55,0c-.41,0-.82,0-1.24,0-.6,0-1.2.08-1.81.17h0l-.65.11c-.32.06-.64.14-1,.22a18.66,18.66,0,0,0-9.59,6.21,14.16,14.16,0,0,0-.88,1.2,17.42,17.42,0,0,0-2.58,6.24c-.11,1-.19,2.74-.25,5v0c-.16,6.3-.11,16.23.11,21.94a35.09,35.09,0,0,0,.31,4.14s0,0,0,0c.16.57.34,1.17.55,1.75.09.25.18.48.28.72s.16.39.25.58a17.77,17.77,0,0,0,2.55,4,5.87,5.87,0,0,0,.41.46,18.42,18.42,0,0,0,12,5.75c.6,0,1.21.05,1.81,0s1.17-.08,1.76-.16l.68-.11c.33-.07.66-.14,1-.23a18.51,18.51,0,0,0,10.31-7.17,3,3,0,0,0,.2-.29,17.4,17.4,0,0,0,2.53-6.07.17.17,0,0,1,0-.07c.11-1,.2-2.77.26-5.09C141.26,139.07,141.21,129.13,141,123.41Zm-11.56,23.33a6.31,6.31,0,0,1-2.76,5.35,4.89,4.89,0,0,1-2.28.75,3.25,3.25,0,0,1-1.52,0,4.89,4.89,0,0,1-2.29-.75,6.84,6.84,0,0,1-2.59-3.6,2.62,2.62,0,0,1-.22-.8V128c0-.52,0-1.11,0-1.74,0-1,0-1.71,0-2.33,0-.1,0-.2,0-.3h0a6.38,6.38,0,0,1,2.77-5.27,4.81,4.81,0,0,1,2.27-.75,3.44,3.44,0,0,1,.77-.09,3.33,3.33,0,0,1,.75.09,4.72,4.72,0,0,1,2.3.75,6.84,6.84,0,0,1,2.59,3.6,2.62,2.62,0,0,1,.22.8l0,7.7,0,11.14v0c0,.68.07,1.56.07,2.53S129.46,146.08,129.42,146.74Z" style="fill:#0880de"/></g></g></svg>