<svg xmlns="http://www.w3.org/2000/svg" viewBox="0 0 200 200"><title>monthly_filled</title><g id="Capa_2" data-name="Capa 2"><g id="Capa_1-2" data-name="Capa 1"><path d="M36.84.58a17.7,17.7,0,0,0-8.13,4.65c-3.86,4-5.27,8.09-5.27,15.35V25H11.72A11.72,11.72,0,0,0,0,36.71v12.9H200V36.71A11.72,11.72,0,0,0,188.28,25H176.56V20.78c0-7.43-1.44-11.64-5.27-15.51A17.44,17.44,0,0,0,143.13,10c-1.45,2.93-2.11,6.71-2.11,12.18V25H117.58V20.19c0-7.62-1.48-11.6-5.78-15.51a17.59,17.59,0,0,0-26.92,4c-1.83,3.08-2.46,6-2.46,11.56V25H59V22.14c0-1.52-.2-4.29-.39-6.13C57.35,5.07,47.11-2.15,36.84.58Zm6.91,11.84a6.41,6.41,0,0,1,2.23,2c.82,1.21.9,1.8.9,5.94V25H35.16V37.1H23.44V25H35.16V20.93a22.91,22.91,0,0,1,.43-5.19A5.9,5.9,0,0,1,43.75,12.42Zm59.14.19c2.42,1.37,3,2.85,3,8V25H94.14V37.1H82.42V25H94.14V20.58c0-3.51.16-4.65.74-5.74A6.66,6.66,0,0,1,100,11.71,6.66,6.66,0,0,1,102.89,12.61Zm59.14.16c2.31,1.72,2.62,2.54,2.74,7.58l.15,4.65H153.13V20.35c0-4.14.07-4.73.9-5.94A5.78,5.78,0,0,1,162,12.77Zm-9.29,18.28V37.1H141.41V25h11.33Z" style="fill:#0880de"/><path d="M.08,68,.2,74.64,8.13,78c4.33,1.79,8.16,3.28,8.47,3.28s5-1.84,10.43-4.11S37.11,73,37.38,73s5,1.84,10.47,4.1,10.2,4.11,10.47,4.11,5-1.84,10.43-4.11S78.87,73,79.14,73s5,1.84,10.43,4.1S99.73,81.25,100,81.25s5-1.84,10.43-4.11S120.55,73,120.86,73s5,1.84,10.43,4.1,10.16,4.11,10.47,4.11,5-1.84,10.43-4.11S162.31,73,162.58,73s5,1.84,10.47,4.1,10.15,4.11,10.51,4.11S187.7,79.76,192,78l7.82-3.29.11-6.68.08-6.68H0Z" style="fill:#0880de"/><path d="M199.77,87.5c-.12,0-3.83,1.48-8.28,3.32l-8.09,3.36L173,89.84l-10.39-4.33-10.43,4.33-10.43,4.34-10.43-4.34-10.47-4.33-10.43,4.33L100,94.18,89.57,89.84,79.18,85.51,68.75,89.84,58.32,94.18,47.93,89.84c-5.7-2.34-10.55-4.29-10.7-4.25s-4.88,2-10.47,4.33L16.6,94.18l-8-3.36C4.18,89,.43,87.5.27,87.5S0,112.81,0,143.75v44.53A11.72,11.72,0,0,0,11.72,200H188.28A11.72,11.72,0,0,0,200,188.28V143.75C200,112.81,199.92,87.5,199.77,87.5ZM93.89,158a17.57,17.57,0,0,1-29.42,10.15c-3-2.89-4.65-6.13-5.47-11.25l-.19-1.25h5.86c5.23,0,5.86.08,6,.67,1,3.3,3.15,5,6.1,4.91,4.39-.17,7-5.5,4.51-9.14-1.21-1.79-2.81-2.35-6.94-2.57l-3.94-.24.12-5.7.11-5.7,4.11-.2c4.45-.23,5.43-.58,6.64-2.54a5.18,5.18,0,0,0,.31-5.62c-1.29-2.5-2.66-3.36-5.2-3.36s-4,.89-5.27,3.63l-1,2H58.85l.19-1.64a18,18,0,0,1,5.17-10.72,16.34,16.34,0,0,1,8.25-4.62,17.71,17.71,0,0,1,8.16,0,16,16,0,0,1,8.23,4.65,17.58,17.58,0,0,1,2.42,22l-1.52,2.35.78,1C93.11,147.91,94.59,153.73,93.89,158Zm47.21-4.21c-.06,2.32-.15,4.14-.26,5.09a.17.17,0,0,0,0,.07,17.4,17.4,0,0,1-2.53,6.07,3,3,0,0,1-.2.29,18.51,18.51,0,0,1-10.31,7.17c-.32.09-.65.16-1,.23l-.68.11c-.59.08-1.18.13-1.76.16s-1.21,0-1.81,0a18.42,18.42,0,0,1-12-5.75,5.87,5.87,0,0,1-.41-.46,17.77,17.77,0,0,1-2.55-4c-.09-.19-.17-.38-.25-.58s-.19-.47-.28-.72c-.21-.58-.39-1.18-.55-1.75,0,0,0,0,0,0a35.09,35.09,0,0,1-.31-4.14c-.22-5.71-.27-15.64-.11-21.94v-.05c.06-2.27.14-4.06.25-5a17.42,17.42,0,0,1,2.58-6.24,14.16,14.16,0,0,1,.88-1.2,18.66,18.66,0,0,1,9.59-6.21c.32-.08.64-.16,1-.22l.65-.11h0c.61-.09,1.21-.14,1.81-.17.42,0,.83,0,1.24,0l.55,0a18.45,18.45,0,0,1,12,5.75c.26.28.5.56.73.85a18,18,0,0,1,2,3.07c0,.08.07.16.12.24.11.24.22.5.33.75a21.52,21.52,0,0,1,.9,2.63.06.06,0,0,1,0,0,35.65,35.65,0,0,1,.3,4.14C141.21,137.58,141.26,147.52,141.1,153.82Z" style="fill:#0880de"/><path d="M129.47,152.63c0,1.08,0,1.9-.05,2.56a6.31,6.31,0,0,1-2.76,5.35,4.89,4.89,0,0,1-2.28.75,3.25,3.25,0,0,1-1.52,0,4.89,4.89,0,0,1-2.29-.75,6.84,6.84,0,0,1-2.59-3.6,2.62,2.62,0,0,1-.22-.8V136.49c0-.52,0-1.11,0-1.74,0-.95,0-1.71,0-2.33,0-.1,0-.2,0-.3h0a6.38,6.38,0,0,1,2.77-5.27,4.81,4.81,0,0,1,2.27-.75,3.44,3.44,0,0,1,.77-.09,3.33,3.33,0,0,1,.75.09,4.72,4.72,0,0,1,2.3.75,6.84,6.84,0,0,1,2.59,3.6,2.62,2.62,0,0,1,.22.8l0,7.7,0,11.14v0C129.44,150.78,129.47,151.66,129.47,152.63Z" style="fill:#0880de"/></g></g></svg>