<svg xmlns="http://www.w3.org/2000/svg" viewBox="0 0 200 200"><title>weekly_filled</title><g id="Capa_2" data-name="Capa 2"><g id="Capa_1-2" data-name="Capa 1"><path d="M36.84.58a17.7,17.7,0,0,0-8.13,4.65c-3.87,4-5.27,8.09-5.27,15.35V25H11.72A11.72,11.72,0,0,0,0,36.71v12.9H200V36.71A11.72,11.72,0,0,0,188.28,25H176.56V20.78c0-7.43-1.44-11.64-5.27-15.51A17.44,17.44,0,0,0,143.13,10c-1.45,2.93-2.11,6.71-2.11,12.18V25H117.58V20.19c0-7.62-1.49-11.6-5.78-15.51a17.59,17.59,0,0,0-26.92,4c-1.83,3.08-2.46,6-2.46,11.56V25H59V22.14c0-1.52-.2-4.29-.4-6.13C57.34,5.07,47.11-2.15,36.84.58Zm6.91,11.84a6.41,6.41,0,0,1,2.23,2c.82,1.21.9,1.8.9,5.94V25H35.16V37.1H23.44V25H35.16V20.93a22.91,22.91,0,0,1,.43-5.19A5.9,5.9,0,0,1,43.75,12.42Zm59.14.19c2.42,1.37,3,2.85,3,8V25H94.14V37.1H82.42V25H94.14V20.58c0-3.51.16-4.65.74-5.74A6.64,6.64,0,0,1,100,11.71,6.66,6.66,0,0,1,102.89,12.61Zm59.14.16c2.31,1.72,2.62,2.54,2.74,7.58l.15,4.65H153.13V20.35c0-4.14.07-4.73.89-5.94A5.79,5.79,0,0,1,162,12.77Zm-9.29,18.28V37.1H141.41V25h11.33Z" style="fill:#0880de"/><path d="M.08,68,.2,74.64,8.13,78c4.33,1.79,8.16,3.28,8.47,3.28s5-1.84,10.43-4.11S37.11,73,37.38,73s5,1.84,10.47,4.1,10.2,4.11,10.47,4.11,5-1.84,10.43-4.11S78.87,73,79.14,73s5,1.84,10.43,4.1S99.73,81.25,100,81.25s5-1.84,10.43-4.11S120.55,73,120.86,73s5,1.84,10.43,4.1,10.16,4.11,10.47,4.11,5-1.84,10.43-4.11S162.31,73,162.58,73s5,1.84,10.47,4.1,10.15,4.11,10.51,4.11S187.7,79.76,192,78l7.82-3.29.11-6.68.08-6.68H0Z" style="fill:#0880de"/><path d="M199.77,87.5c-.12,0-3.83,1.48-8.28,3.32l-8.09,3.36L173,89.84l-10.39-4.33-10.43,4.33-10.43,4.34-10.43-4.34-10.47-4.33-10.43,4.33L100,94.18,89.57,89.84,79.18,85.51,68.75,89.84,58.32,94.18,47.93,89.84c-5.7-2.34-10.55-4.29-10.7-4.25s-4.88,2-10.47,4.33L16.6,94.18l-8-3.36C4.18,89,.43,87.5.27,87.5S0,112.81,0,143.75v44.53A11.72,11.72,0,0,0,11.72,200H188.28A11.72,11.72,0,0,0,200,188.28V143.75C200,112.81,199.92,87.5,199.77,87.5Zm-82.94,73.2a17.63,17.63,0,0,1-26,9.73,22.91,22.91,0,0,1-6.17-6.53,21.33,21.33,0,0,1-2.23-8.36,20.63,20.63,0,0,1,4-11.25c.36-.51.2-1-.85-2.46a17.66,17.66,0,0,1,2.14-22.31,19.59,19.59,0,0,1,8.79-4.84,17.6,17.6,0,0,1,19.42,9.69,12.38,12.38,0,0,1,1.6,6.68,16.5,16.5,0,0,1-2.85,10.7l-1.29,1.95,1.33,2A18.32,18.32,0,0,1,116.83,160.7Z" style="fill:#0880de"/><path d="M103.12,160.46a5.12,5.12,0,0,1-5.43.2c-2.5-1.29-3.36-2.66-3.36-5.2s.86-3.9,3.36-5.19a5.18,5.18,0,0,1,5.67.35C106.8,152.73,106.64,158.35,103.12,160.46Z" style="fill:#0880de"/><path d="M100,137.69a5.78,5.78,0,1,1,2.62-10.94C108.2,129.25,106.17,137.69,100,137.69Z" style="fill:#0880de"/></g></g></svg>