<svg xmlns="http://www.w3.org/2000/svg" viewBox="0 0 200 200"><title>weekly_outlined</title><g id="Capa_2" data-name="Capa 2"><g id="Capa_1-2" data-name="Capa 1"><path d="M36.76.6a17.76,17.76,0,0,0-8,4.65C25,9,23.44,13.33,23.44,19.78v3.63H11.72A11.72,11.72,0,0,0,0,35.13V188.28A11.72,11.72,0,0,0,11.72,200H188.28A11.72,11.72,0,0,0,200,188.28V35.13a11.72,11.72,0,0,0-11.72-11.72H176.56V20c0-6.6-1.6-11-5.27-14.72a17.44,17.44,0,0,0-28.16,4.68A26.64,26.64,0,0,0,141,21.34v2.07H117.58v-4c0-6.75-1.64-10.92-5.76-14.71a17.43,17.43,0,0,0-23.64,0c-4.12,3.79-5.76,8-5.76,14.71v4H59V21.34c0-1.09-.19-3.51-.39-5.35C57.34,5,47.11-2.18,36.76.6Zm7,11.8a6.41,6.41,0,0,1,2.23,2c.78,1.17.9,1.83.9,5.16v3.86H35.16V20.13c0-3.59.35-5,1.68-6.45A5.72,5.72,0,0,1,43.75,12.4Zm59.14.19c2.31,1.33,3,2.89,3,7.19v3.63H94.14V19.78c0-2.77.16-3.91.74-5A6.64,6.64,0,0,1,100,11.69,6.66,6.66,0,0,1,102.89,12.59Zm59.14.16c2.23,1.64,2.62,2.61,2.74,6.8l.15,3.86H153.13V19.55c0-3.33.11-4,.89-5.16A5.79,5.79,0,0,1,162,12.75ZM23.44,38.06V41H35.16V35.13H82.42V41H94.14V35.13H141V41h12.11V35.13h35.15V46.85H11.72V35.13H23.44ZM188.28,63.81v4.8l-6.21,2.62c-3.44,1.41-6.44,2.58-6.72,2.58s-4.53-1.68-9.45-3.71-9.14-3.71-9.42-3.71-4.49,1.68-9.37,3.71-9.14,3.71-9.41,3.71-4.5-1.68-9.42-3.71-9.14-3.71-9.41-3.71-4.49,1.68-9.42,3.71-9.18,3.71-9.41,3.71-4.49-1.68-9.41-3.71-9.15-3.71-9.42-3.71-4.53,1.68-9.41,3.71-9.14,3.71-9.42,3.71S57.85,72.13,53,70.1s-9.14-3.71-9.42-3.71S39,68.07,34.14,70.1s-9.1,3.71-9.41,3.71S21.41,72.64,18,71.23l-6.25-2.62V59H188.28ZM53.36,83l9,3.75,9.42-3.9,9.41-3.91,9.42,3.91L100,86.7l9.41-3.9,9.46-3.91,9.41,3.91,9.38,3.9,9.45-3.9,9.41-3.91,9.42,3.91,9.37,3.9L181.8,84l6.48-2.7v107H11.72V134.72c0-29.42.12-53.45.31-53.37s3.05,1.37,6.49,2.77l6.17,2.58L34,82.84a97.35,97.35,0,0,1,9.8-3.79C44.06,79.12,48.4,80.88,53.36,83Z" style="fill:#0880de"/><path d="M96.48,108.23a19.59,19.59,0,0,0-8.79,4.84,17.66,17.66,0,0,0-2.14,22.31c1,1.48,1.21,2,.85,2.46a20.63,20.63,0,0,0-4,11.25,21.33,21.33,0,0,0,2.23,8.36A22.91,22.91,0,0,0,90.82,164a17.63,17.63,0,0,0,26-9.73,18.32,18.32,0,0,0-2.14-15l-1.33-2,1.29-1.95a16.5,16.5,0,0,0,2.85-10.7,12.41,12.41,0,0,0-1.6-6.69A17.6,17.6,0,0,0,96.48,108.23Zm6.14,12.07c5.58,2.5,3.55,10.94-2.62,10.94a5.78,5.78,0,1,1,2.62-10.94Zm.74,23.87c3.44,2.11,3.28,7.73-.24,9.84a5.12,5.12,0,0,1-5.43.2c-2.5-1.29-3.36-2.66-3.36-5.2s.86-3.9,3.36-5.19A5.18,5.18,0,0,1,103.36,144.17Z" style="fill:#0880de"/></g></g></svg>