<svg xmlns="http://www.w3.org/2000/svg" viewBox="0 0 200 200"><title>yearly_outlined</title><g id="Capa_2" data-name="Capa 2"><g id="Capa_1-2" data-name="Capa 1"><path d="M36.76.6a17.76,17.76,0,0,0-8,4.65C25,9,23.44,13.33,23.44,19.78v3.63H11.72A11.72,11.72,0,0,0,0,35.13V188.28A11.72,11.72,0,0,0,11.72,200H188.28A11.72,11.72,0,0,0,200,188.28V35.13a11.72,11.72,0,0,0-11.72-11.72H176.56V20c0-6.6-1.6-11-5.27-14.72a17.44,17.44,0,0,0-28.16,4.68A26.64,26.64,0,0,0,141,21.34v2.07H117.58v-4c0-6.75-1.64-10.92-5.76-14.71a17.43,17.43,0,0,0-23.64,0c-4.12,3.79-5.76,8-5.76,14.71v4H59V21.34c0-1.09-.19-3.51-.39-5.35C57.34,5,47.11-2.18,36.76.6Zm7,11.8a6.41,6.41,0,0,1,2.23,2c.78,1.17.9,1.83.9,5.16v3.86H35.16V20.13c0-3.59.35-5,1.68-6.45A5.72,5.72,0,0,1,43.75,12.4Zm59.14.19c2.31,1.33,3,2.89,3,7.19v3.63H94.14V19.78c0-2.77.16-3.91.74-5A6.64,6.64,0,0,1,100,11.69,6.66,6.66,0,0,1,102.89,12.59Zm59.14.16c2.23,1.64,2.62,2.61,2.74,6.8l.15,3.86H153.13V19.55c0-3.33.11-4,.89-5.16A5.79,5.79,0,0,1,162,12.75ZM23.44,38.06V41H35.16V35.13H82.42V41H94.14V35.13H141V41h12.11V35.13h35.15V46.85H11.72V35.13H23.44ZM188.28,63.81v4.8l-6.21,2.62c-3.44,1.41-6.44,2.58-6.72,2.58s-4.53-1.68-9.45-3.71-9.14-3.71-9.42-3.71-4.49,1.68-9.37,3.71-9.14,3.71-9.41,3.71-4.5-1.68-9.42-3.71-9.14-3.71-9.41-3.71-4.49,1.68-9.42,3.71-9.18,3.71-9.41,3.71-4.49-1.68-9.41-3.71-9.15-3.71-9.42-3.71-4.53,1.68-9.41,3.71-9.14,3.71-9.42,3.71S57.85,72.13,53,70.1s-9.14-3.71-9.42-3.71S39,68.07,34.14,70.1s-9.1,3.71-9.41,3.71S21.41,72.64,18,71.23l-6.25-2.62V59H188.28ZM53.36,83l9,3.75,9.42-3.9,9.41-3.91,9.42,3.91L100,86.7l9.41-3.9,9.46-3.91,9.41,3.91,9.38,3.9,9.45-3.9,9.41-3.91,9.42,3.91,9.37,3.9L181.8,84l6.48-2.7v107H11.72V134.72c0-29.42.12-53.45.31-53.37s3.05,1.37,6.49,2.77l6.17,2.58L34,82.84a97.35,97.35,0,0,1,9.8-3.79C44.06,79.12,48.4,80.88,53.36,83Z" style="fill:#0880de"/><path d="M48.84,106.45a16.28,16.28,0,0,0-8.24,4.62,18,18,0,0,0-5.17,10.71l-.2,1.65H46.68l1-2c1.29-2.74,2.61-3.64,5.27-3.64s3.91.86,5.2,3.36a5.2,5.2,0,0,1-.32,5.63c-1.21,1.95-2.18,2.3-6.64,2.54l-4.1.19L47,135.19l-.11,5.7,3.94.23c4.12.22,5.72.78,6.94,2.57,2.46,3.64-.12,9-4.51,9.15-3,.12-5.13-1.61-6.1-4.92-.2-.58-.82-.66-6.06-.66H35.2l.19,1.25c.82,5.12,2.42,8.36,5.47,11.25A17.56,17.56,0,0,0,70.27,149.6c.71-4.3-.78-10.12-3.36-13.24l-.78-1L67.66,133a17.58,17.58,0,0,0-2.43-22A15.94,15.94,0,0,0,57,106.44,17.62,17.62,0,0,0,48.84,106.45Z" style="fill:#0880de"/><path d="M95.82,106.43a18.05,18.05,0,0,0-13,13.13c-.62,2.69-.55,29.38.12,31.8a17.57,17.57,0,1,0,14.3-21.64,16,16,0,0,0-2.82.58c-.15.12-.31-1.68-.31-4,0-3.56.12-4.38.86-5.67a6.75,6.75,0,0,1,5-3.08,6.75,6.75,0,0,1,5,3.08,6.61,6.61,0,0,1,.86,2.15c0,.55.74.63,5.86.63h5.86v-1.1a18.21,18.21,0,0,0-1.8-6.56A17.82,17.82,0,0,0,95.82,106.43Zm7.6,35.93c3.33,2.65,3.2,7-.37,9.74a6.25,6.25,0,0,1-6.1,0c-3.43-2.57-3.75-6.62-.76-9.44A5.89,5.89,0,0,1,103.42,142.36Z" style="fill:#0880de"/><path d="M129.3,123.43V141h8.9a78,78,0,0,1,10.39.43,5.85,5.85,0,0,1,3.52,8.57c-2.44,4.27-9,3.35-10.58-1.3l-.44-1.26-5.89-.11-5.9-.12.23,1.29c.86,5.16,2.42,8.36,5.47,11.25a17.52,17.52,0,1,0,19.61-28.52,24.55,24.55,0,0,0-10.55-2h-3V117.57h12.11v5.86h11.71V105.85H129.3Z" style="fill:#0880de"/></g></g></svg>