<svg xmlns="http://www.w3.org/2000/svg" viewBox="0 0 200 200"><title>yearly_filled</title><g id="Capa_2" data-name="Capa 2"><g id="Capa_1-2" data-name="Capa 1"><path d="M36.84.58a17.7,17.7,0,0,0-8.13,4.65c-3.87,4-5.27,8.09-5.27,15.35V25H11.72A11.72,11.72,0,0,0,0,36.71v12.9H200V36.71A11.72,11.72,0,0,0,188.28,25H176.56V20.78c0-7.43-1.44-11.64-5.27-15.51A17.44,17.44,0,0,0,143.13,10c-1.45,2.93-2.11,6.71-2.11,12.18V25H117.58V20.19c0-7.62-1.49-11.6-5.78-15.51a17.59,17.59,0,0,0-26.92,4c-1.83,3.08-2.46,6-2.46,11.56V25H59V22.14c0-1.52-.19-4.29-.39-6.13C57.34,5.07,47.11-2.15,36.84.58Zm6.91,11.84a6.41,6.41,0,0,1,2.23,2c.82,1.21.9,1.8.9,5.94V25H35.16V37.1H23.44V25H35.16V20.93a22.91,22.91,0,0,1,.43-5.19A5.9,5.9,0,0,1,43.75,12.42Zm59.14.19c2.42,1.37,3,2.85,3,8V25H94.14V37.1H82.42V25H94.14V20.58c0-3.51.16-4.65.74-5.74A6.64,6.64,0,0,1,100,11.71,6.66,6.66,0,0,1,102.89,12.61Zm59.14.16c2.31,1.72,2.62,2.54,2.74,7.58l.15,4.65H153.13V20.35c0-4.14.07-4.73.89-5.94A5.79,5.79,0,0,1,162,12.77Zm-9.3,18.28V37.1H141.41V25h11.32Z" style="fill:#0880de"/><path d="M.08,68,.2,74.64,8.13,78c4.33,1.79,8.16,3.28,8.47,3.28s5-1.84,10.43-4.11S37.11,73,37.38,73s5,1.84,10.47,4.1,10.2,4.11,10.47,4.11,5-1.84,10.43-4.11S78.87,73,79.14,73s5,1.84,10.43,4.1S99.73,81.25,100,81.25s5-1.84,10.43-4.11S120.55,73,120.86,73s5,1.84,10.43,4.1,10.16,4.11,10.47,4.11,5-1.84,10.43-4.11S162.3,73,162.58,73s5,1.84,10.47,4.1,10.15,4.11,10.5,4.11S187.7,79.76,192,78l7.81-3.29.12-6.68.08-6.68H0Z" style="fill:#0880de"/><path d="M26.76,89.92,16.6,94.18l-8-3.36C4.18,89,.43,87.5.27,87.5S0,112.81,0,143.75v44.53A11.72,11.72,0,0,0,11.72,200H188.28A11.72,11.72,0,0,0,200,188.28V143.75c0-30.94-.08-56.25-.23-56.25s-3.83,1.48-8.29,3.32l-8.08,3.36L173,89.84,162.62,85.5l-10.43,4.34-10.43,4.34-10.43-4.34L120.86,85.5l-10.43,4.34L100,94.18,89.57,89.84,79.18,85.5,68.75,89.84,58.32,94.18,47.93,89.84c-5.7-2.34-10.55-4.3-10.7-4.26S32.34,87.54,26.76,89.92ZM57,116.21a16,16,0,0,1,8.24,4.65,17.56,17.56,0,0,1,2.43,22l-1.53,2.34.78,1c2.58,3.13,4.07,9,3.36,13.24a17.57,17.57,0,0,1-24.88,13.29c-5.51-2.58-8.83-7.35-10-14.38L35.16,157l5.89.12,5.9.12.47,1.34c1.61,4.6,8,5.5,10.5,1.31a5.85,5.85,0,0,0-3.47-8.67,21,21,0,0,0-4.33-.43H47.27V139.06h3.55c4.1,0,5.78-.59,7-2.5a5.18,5.18,0,0,0,.36-5.66c-1.29-2.5-2.66-3.36-5.2-3.36s-4,.9-5.27,3.63l-1,2H35.23l.2-1.68a17.34,17.34,0,0,1,5.08-10.58A17.13,17.13,0,0,1,57,116.21Zm47,0c7.35,1.91,12.58,7.69,13.4,14.84l.28,2.15h-5.94c-5.16,0-5.9-.08-5.9-.62a6.53,6.53,0,0,0-.86-2.15,6.76,6.76,0,0,0-5-3.09,6.76,6.76,0,0,0-5,3.09c-.74,1.29-.86,2.11-.86,5.66,0,2.31.16,4.1.31,4,1-.63,5.51-1,8-.63,14.38,2.07,20.2,19.81,9.81,29.92-9.61,9.42-25.82,4.85-29.3-8.24-.67-2.42-.74-29.1-.12-31.8C85,120,94.92,113.83,104,116.21Zm60.82,8.2v8.79H153.13v-5.86H141v11.72h3c9.18,0,15.43,3.32,18.64,9.92,7.3,15-8,30.71-23.17,23.68-5.51-2.58-8.83-7.35-10-14.38L129.3,157l5.9.12,5.89.12.47,1.34c1.62,4.6,8,5.5,10.5,1.31a5.85,5.85,0,0,0-3.47-8.67,80,80,0,0,0-10.39-.43h-8.9V115.62h35.54Z" style="fill:#0880de"/><path d="M98.28,151.17c-3.55,1.09-5.27,5.66-3.24,8.59,1.41,2.11,2.77,2.9,5,2.9s3.55-.79,5-2.9C107.85,155.58,103.24,149.65,98.28,151.17Z" style="fill:#0880de"/></g></g></svg>